<svg width="240" height="308" viewBox="0 0 240 308" fill="none" xmlns="http://www.w3.org/2000/svg">
<path d="M231.801 80.2242H185.419C181.136 80.2242 177.652 76.7084 177.652 72.3655V21.1633C177.652 17.5959 175.289 14.4765 171.89 13.5631L128.397 1.84404H128.38L122.483 0.258509C121.837 0.0861692 121.157 0 120.494 0H63.2519C59.7337 0 56.6574 2.39552 55.7567 5.84232L42.3808 56.9583L27.4924 113.899L0.264868 217.889C-1.04382 222.887 2.6613 227.782 7.76009 227.782H52.6294C55.7397 227.782 58.561 229.677 59.7677 232.607L60.5495 234.486C61.4333 236.588 61.8752 238.863 61.8752 241.155V286.842C61.8752 290.41 64.2376 293.529 67.6368 294.443L117.061 307.747C117.707 307.92 118.37 308.006 119.05 308.006H176.275C179.793 308.006 182.869 305.61 183.77 302.163L197.163 251.047L212.051 194.106L217.66 172.667C218.544 169.272 217.116 165.705 214.159 163.895L187.798 147.885C181.051 143.783 183.923 133.27 191.775 133.27H222.011C225.529 133.27 228.605 130.875 229.506 127.428L239.296 90.0993C240.605 85.1186 236.883 80.2242 231.801 80.2242ZM145.529 203.016L135.944 239.57C134.856 243.775 130.607 246.274 126.46 245.153L69.3704 229.798C65.2404 228.678 62.776 224.369 63.8637 220.181L65.0874 215.528L76.7807 170.84L80.2308 157.639C81.8964 151.297 91.0912 152.366 91.2782 158.932L91.6861 172.977C91.6861 176.528 94.0485 179.63 97.4307 180.543L137.303 191.28C138.476 191.59 139.547 192.193 140.464 193.003L143.337 195.588C145.393 197.45 146.243 200.328 145.529 203.016ZM175.765 87.4797L166.4 123.206C165.992 124.757 165.143 126.136 163.936 127.17L162.508 128.393C162.015 128.824 161.471 129.186 160.877 129.479L159.517 130.151C157.834 130.978 155.931 131.168 154.129 130.685L101.493 116.536L99.1813 115.916C95.0343 114.796 92.5699 110.487 93.6746 106.282L106.592 56.9583L110.161 43.3435C111.826 36.9669 121.055 38.0871 121.191 44.6877L121.497 59.0781C121.497 62.6283 123.859 65.7304 127.259 66.6438L165.534 76.9669C167.777 77.5701 169.85 78.7076 171.567 80.2587L174.388 82.8265C175.663 83.9812 176.207 85.7908 175.765 87.4797Z" fill="#F2B705"/>
<path d="M63.252 0.453125H120.494C121.118 0.453125 121.759 0.5336 122.365 0.695312V0.696289L128.263 2.28125L128.32 2.29688H128.337L171.772 14.001C174.97 14.8601 177.198 17.7964 177.198 21.1631V72.3652C177.198 76.9537 180.881 80.6768 185.419 80.6768H231.801C236.429 80.6768 239.872 85.0003 238.96 89.5439L238.857 89.9844L229.068 127.313C228.219 130.564 225.319 132.817 222.011 132.817H191.775C183.45 132.817 180.438 143.94 187.562 148.271H187.563L213.924 164.282V164.281C216.621 165.932 217.97 169.14 217.294 172.252L217.222 172.553L211.613 193.991V193.992L196.725 250.933L183.332 302.049C182.483 305.299 179.584 307.553 176.275 307.553H119.05C118.409 307.553 117.785 307.472 117.178 307.31H117.179L67.7549 294.005H67.7539C64.5571 293.146 62.3283 290.209 62.3281 286.843V241.155C62.3281 238.805 61.8749 236.47 60.9668 234.31L60.1855 232.433C58.9095 229.337 55.9254 227.328 52.6299 227.328H7.75977C2.9669 227.328 -0.532639 222.723 0.703125 218.004L27.9307 114.014L42.8193 57.0732L56.1953 5.95703C57.0448 2.70637 59.9432 0.453125 63.252 0.453125ZM92.1387 172.964L91.7314 158.919C91.533 151.948 81.901 150.706 79.8828 157.209L79.793 157.524L76.3428 170.726L64.6494 215.413L63.4258 220.066L63.4248 220.067C62.276 224.491 64.8774 229.049 69.252 230.235H69.2529L126.342 245.591C130.736 246.778 135.231 244.128 136.381 239.684L136.382 239.685L145.968 203.131L145.967 203.13C146.723 200.279 145.823 197.228 143.641 195.253L143.64 195.252L140.768 192.667L140.765 192.664L140.395 192.354C139.514 191.657 138.511 191.131 137.419 190.842H137.418L97.5488 180.105C94.367 179.246 92.1387 176.326 92.1387 172.978H92.1396L92.1387 172.964ZM121.95 59.0684L121.644 44.6777C121.496 37.5679 111.525 36.3286 109.723 43.2285L106.153 56.8438L93.2363 106.167C92.1061 110.47 94.5125 114.882 98.6572 116.232L99.0635 116.354L101.375 116.974L154.012 131.123C155.92 131.634 157.937 131.433 159.717 130.558L159.718 130.557L161.077 129.885V129.886C161.707 129.576 162.283 129.191 162.806 128.733L164.23 127.514C165.509 126.418 166.408 124.959 166.839 123.321V123.32L176.203 87.5947C176.688 85.7428 176.092 83.7596 174.692 82.4912H174.693L171.872 79.9238L171.871 79.9229L171.535 79.6279C169.948 78.2762 168.087 77.2564 166.083 76.6523L165.651 76.5293L127.377 66.2061H127.376C124.177 65.3464 121.95 62.4258 121.95 59.0781V59.0684Z" stroke="white" stroke-opacity="0.04" stroke-width="0.906015"/>
<path d="M63.252 0.453125H120.494C121.118 0.453125 121.759 0.5336 122.365 0.695312V0.696289L128.263 2.28125L128.32 2.29688H128.337L171.772 14.001C174.97 14.8601 177.198 17.7964 177.198 21.1631V72.3652C177.198 76.9537 180.881 80.6768 185.419 80.6768H231.801C236.429 80.6768 239.872 85.0003 238.96 89.5439L238.857 89.9844L229.068 127.313C228.219 130.564 225.319 132.817 222.011 132.817H191.775C183.45 132.817 180.438 143.94 187.562 148.271H187.563L213.924 164.282V164.281C216.621 165.932 217.97 169.14 217.294 172.252L217.222 172.553L211.613 193.991V193.992L196.725 250.933L183.332 302.049C182.483 305.299 179.584 307.553 176.275 307.553H119.05C118.409 307.553 117.785 307.472 117.178 307.31H117.179L67.7549 294.005H67.7539C64.5571 293.146 62.3283 290.209 62.3281 286.843V241.155C62.3281 238.805 61.8749 236.47 60.9668 234.31L60.1855 232.433C58.9095 229.337 55.9254 227.328 52.6299 227.328H7.75977C2.9669 227.328 -0.532639 222.723 0.703125 218.004L27.9307 114.014L42.8193 57.0732L56.1953 5.95703C57.0448 2.70637 59.9432 0.453125 63.252 0.453125ZM92.1387 172.964L91.7314 158.919C91.533 151.948 81.901 150.706 79.8828 157.209L79.793 157.524L76.3428 170.726L64.6494 215.413L63.4258 220.066L63.4248 220.067C62.276 224.491 64.8774 229.049 69.252 230.235H69.2529L126.342 245.591C130.736 246.778 135.231 244.128 136.381 239.684L136.382 239.685L145.968 203.131L145.967 203.13C146.723 200.279 145.823 197.228 143.641 195.253L143.64 195.252L140.768 192.667L140.765 192.664L140.395 192.354C139.514 191.657 138.511 191.131 137.419 190.842H137.418L97.5488 180.105C94.367 179.246 92.1387 176.326 92.1387 172.978H92.1396L92.1387 172.964ZM121.95 59.0684L121.644 44.6777C121.496 37.5679 111.525 36.3286 109.723 43.2285L106.153 56.8438L93.2363 106.167C92.1061 110.47 94.5125 114.882 98.6572 116.232L99.0635 116.354L101.375 116.974L154.012 131.123C155.92 131.634 157.937 131.433 159.717 130.558L159.718 130.557L161.077 129.885V129.886C161.707 129.576 162.283 129.191 162.806 128.733L164.23 127.514C165.509 126.418 166.408 124.959 166.839 123.321V123.32L176.203 87.5947C176.688 85.7428 176.092 83.7596 174.692 82.4912H174.693L171.872 79.9238L171.871 79.9229L171.535 79.6279C169.948 78.2762 168.087 77.2564 166.083 76.6523L165.651 76.5293L127.377 66.2061H127.376C124.177 65.3464 121.95 62.4258 121.95 59.0781V59.0684Z" stroke="black" stroke-opacity="0.2" stroke-width="0.906015"/>
</svg>
